name Walk5.mot
datacolumns 19
datarows 17
range 2.28500000 2.36500000
endheader

                time	   L_ground_force_vx	   L_ground_force_vy	   L_ground_force_vz	   L_ground_force_px	   L_ground_force_py	   L_ground_force_pz	   R_ground_force_vx	   R_ground_force_vy	   R_ground_force_vz	   R_ground_force_px	   R_ground_force_py	   R_ground_force_pz	   L_ground_torque_x	   L_ground_torque_y	   L_ground_torque_z	   R_ground_torque_x	   R_ground_torque_y	   R_ground_torque_z	
          2.28500000	         -0.00000000	         -0.00000000	          0.00000000	          0.00000000	          0.00000000	          0.00000000	          7.30733741	         20.45780135	          2.73878462	          0.19621991	          0.00000000	          0.01804488	          0.00000000	         -0.00000000	          0.00000000	          0.00000000	         -0.01739504	          0.00000000	
          2.29000000	          0.00000000	          0.00000000	         -0.00000000	          0.00000000	          0.00000000	          0.00000000	          4.37793324	         11.98613307	          1.92099324	          0.15631909	          0.00000000	          0.01429400	          0.00000000	         -0.00000000	          0.00000000	          0.00000000	         -0.00167513	          0.00000000	
          2.29500000	          0.00000000	          0.00000000	         -0.00000000	          0.00000000	          0.00000000	          0.00000000	          2.15313306	          5.60550564	          1.24463230	          0.11837062	          0.00000000	          0.01075834	          0.00000000	         -0.00000000	          0.00000000	          0.00000000	          0.00853808	          0.00000000	
          2.30000000	          0.00000000	          0.00000000	         -0.00000000	          0.00000000	          0.00000000	          0.00000000	          0.55612501	          1.07040515	          0.71245976	          0.08467332	          0.00000000	          0.00764013	          0.00000000	         -0.00000000	          0.00000000	          0.00000000	          0.01441236	          0.00000000	
          2.30500000	          0.00000000	          0.00000000	         -0.00000000	          0.00000000	          0.00000000	          0.00000000	         -0.51198807	         -1.92252304	          0.31484087	          0.05636725	          0.00000000	          0.00503624	          0.00000000	         -0.00000000	          0.00000000	          0.00000000	          0.01703957	          0.00000000	
          2.31000000	          0.00000000	          0.00000000	         -0.00000000	         -0.00000000	          0.00000000	          0.00000000	         -1.15645624	         -3.68978158	          0.03495548	          0.03375715	          0.00000000	          0.00296812	          0.00000000	         -0.00000000	          0.00000000	          0.00000000	          0.01737673	          0.00000000	
          2.31500000	          0.00000000	          0.00000000	         -0.00000000	         -0.00000000	          0.00000000	         -0.00000000	         -1.47827948	         -4.53127314	         -0.14729416	          0.01658795	          0.00000000	          0.00140712	          0.00000000	         -0.00000000	          0.00000000	          0.00000000	          0.01621865	          0.00000000	
          2.32000000	          0.00000000	          0.00000000	         -0.00000000	         -0.00000000	          0.00000000	         -0.00000000	         -1.56774446	         -4.71253646	         -0.25251814	          0.00426577	          0.00000000	          0.00029480	          0.00000000	         -0.00000000	          0.00000000	          0.00000000	          0.01419330	          0.00000000	
          2.32500000	          0.00000000	          0.00000000	         -0.00000000	         -0.00000000	          0.00000000	         -0.00000000	         -1.50112699	         -4.45607246	         -0.30002510	         -0.00397358	          0.00000000	         -0.00044182	          0.00000000	         -0.00000000	          0.00000000	          0.00000000	          0.01177197	          0.00000000	
          2.33000000	          0.00000000	          0.00000000	         -0.00000000	         -0.00000000	          0.00000000	         -0.00000000	         -1.33968550	         -3.93918562	         -0.30676204	         -0.00894305	          0.00000000	         -0.00087926	          0.00000000	          0.00000000	          0.00000000	          0.00000000	          0.00928819	          0.00000000	
          2.33500000	          0.00000000	          0.00000000	         -0.00000000	         -0.00000000	          0.00000000	         -0.00000000	         -1.13020328	         -3.29617414	         -0.28682114	         -0.01142259	          0.00000000	         -0.00109025	          0.00000000	          0.00000000	          0.00000000	          0.00000000	          0.00696081	          0.00000000	
          2.34000000	          0.00000000	          0.00000000	         -0.00000000	         -0.00000000	          0.00000000	         -0.00000000	         -0.90648097	         -2.62313582	         -0.25134935	         -0.01210928	          0.00000000	         -0.00113932	          0.00000000	          0.00000000	          0.00000000	          0.00000000	          0.00491779	          0.00000000	
          2.34500000	          0.00000000	          0.00000000	         -0.00000000	         -0.00000000	          0.00000000	         -0.00000000	         -0.69132051	         -1.98407106	         -0.20872328	         -0.01159195	          0.00000000	         -0.00108068	          0.00000000	          0.00000000	          0.00000000	          0.00000000	          0.00321870	          0.00000000	
          2.35000000	          0.00000000	          0.00000000	         -0.00000000	         -0.00000000	          0.00000000	         -0.00000000	         -0.49866718	         -1.41733517	         -0.16488051	         -0.01034341	          0.00000000	         -0.00095761	          0.00000000	          0.00000000	          0.00000000	          0.00000000	          0.00187455	          0.00000000	
          2.35500000	          0.00000000	          0.00000000	         -0.00000000	         -0.00000000	          0.00000000	         -0.00000000	         -0.33568378	         -0.94180436	         -0.12372495	         -0.00872470	          0.00000000	         -0.00080295	          0.00000000	          0.00000000	          0.00000000	          0.00000000	          0.00086432	          0.00000000	
          2.36000000	         -0.00000000	         -0.00000000	         -0.00000000	         -0.00000000	          0.00000000	         -0.00000000	         -0.20461716	         -0.56237032	         -0.08754753	         -0.00699664	          0.00000000	         -0.00064027	          0.00000000	          0.00000000	          0.00000000	          0.00000000	          0.00014812	          0.00000000	
          2.36500000	         -0.00000000	         -0.00000000	          0.00000000	         -0.00000000	          0.00000000	         -0.00000000	         -0.10438393	         -0.27456993	         -0.05742370	         -0.00533512	          0.00000000	         -0.00048531	          0.00000000	          0.00000000	          0.00000000	          0.00000000	         -0.00032288	          0.00000000	
